<?xml version="1.0" encoding="utf-8"?>
<!-- Generator: Adobe Illustrator 23.0.3, SVG Export Plug-In . SVG Version: 6.00 Build 0)  -->
<svg version="1.1" id="Layer_1" xmlns="http://www.w3.org/2000/svg" xmlns:xlink="http://www.w3.org/1999/xlink" x="0px" y="0px"
	 viewBox="0 0 512 512" style="enable-background:new 0 0 512 512;" xml:space="preserve">
<style type="text/css">
	.st0{fill:none;stroke:#303030;stroke-width:15;stroke-miterlimit:10;}
	.st1{fill:none;stroke:#00B670;stroke-width:15;stroke-miterlimit:10;}
	.st2{fill:none;stroke:url(#SVGID_1_);stroke-width:15;stroke-miterlimit:10;}
	.st3{fill:none;stroke:url(#SVGID_2_);stroke-width:15;stroke-miterlimit:10;}
	.st4{fill:#00B670;}
	.st5{fill:url(#SVGID_3_);}
	.st6{fill:url(#SVGID_4_);}
	.st7{fill:#303030;}
	.st8{fill:#FFFFFF;}
	.st9{fill:none;stroke:#FFFFFF;stroke-width:15;stroke-miterlimit:10;}
	.st10{fill:url(#SVGID_5_);}
	.st11{fill:url(#SVGID_6_);}
	.st12{fill:url(#SVGID_7_);}
	.st13{fill:url(#SVGID_8_);}
	.st14{fill:none;stroke:url(#SVGID_9_);stroke-width:15;stroke-miterlimit:10;}
	.st15{fill:none;stroke:url(#SVGID_10_);stroke-width:15;stroke-miterlimit:10;}
	.st16{fill:url(#SVGID_11_);}
	.st17{fill:url(#SVGID_12_);}
	.st18{fill:url(#SVGID_13_);}
	.st19{fill:url(#SVGID_14_);}
	.st20{fill:none;stroke:url(#SVGID_15_);stroke-width:15;stroke-miterlimit:10;}
	.st21{fill:none;stroke:url(#SVGID_16_);stroke-width:15;stroke-miterlimit:10;}
</style>
<g>
	<g>
		<path class="st0" d="M98.3,261.4c-0.9-15.8,2-31,7-45.5c15.4-44.7,50.5-77.5,111-61.7c4.3,1.1,8.8,1.9,13,3.5
			c14.3,5.5,28.2,4.1,42.3-0.6c18-6,36-11.1,55.5-7.6c23,4.1,40.9,15.9,55.3,33.8c3.9,4.9,3.4,9.3-1,13.6c-4.1,4-8.2,8.1-12.3,12.2
			c-32,32-23.5,87.6,16.9,107.7c8.3,4.2,9.5,8.7,6.4,16.7c-11.6,30.4-26.9,58.2-52.9,78.7c-14.1,11.1-29.7,14.5-46.9,8.1
			c-6.3-2.3-12.9-3.8-19.2-6.1c-15.1-5.3-29.9-5.3-45,0.7c-17,6.8-34.3,13.2-52.6,3.2c-8.6-4.7-16.3-10.3-22.6-17.7
			C118.8,360.5,100,314.3,98.3,261.4z"/>
	</g>
	<path class="st0" d="M243.4,133c0,0,4-76.3,66-77.3C309.4,55.7,319.4,127.3,243.4,133z"/>
</g>
</svg>
